<svg width="191" height="47" viewBox="0 0 191 47" fill="none" xmlns="http://www.w3.org/2000/svg">
<g clip-path="url(#clip0_3267_6322)">
<path d="M26.637 36.6944L15.2803 25.3591L6.90933 17.0039C5.83712 23.9817 7.96712 31.3579 13.3522 36.728C22.3338 45.6927 36.8879 45.6927 45.8695 36.728L34.5319 25.4119C32.6423 29.4958 30.0123 33.3255 26.637 36.6896V36.6944Z" fill="url(#paint0_linear_3267_6322)"/>
<path d="M26.6369 36.6944L15.2802 25.3591L6.90927 17.0039C5.83706 23.9817 7.96706 31.3579 13.3521 36.728C22.3337 45.6927 36.8878 45.6927 45.8694 36.728L34.5319 25.4119C32.6423 29.4958 30.0122 33.3255 26.6369 36.6896V36.6944Z" fill="url(#paint1_linear_3267_6322)"/>
<path d="M36.282 19.6425L24.9252 30.9779L16.5543 39.333C23.5453 40.4032 30.9354 38.2772 36.3157 32.9023C45.2972 23.9377 45.2972 9.41093 36.3157 0.446289L24.9781 11.7625C29.0698 13.6485 32.9067 16.2736 36.2772 19.6425H36.282Z" fill="url(#paint2_linear_3267_6322)"/>
<path d="M19.2324 10.1174L30.5892 21.4528L38.9601 29.8079C40.0323 22.8301 37.9023 15.454 32.5173 10.0838C23.5357 1.11919 8.98155 1.11919 0 10.0838L11.3375 21.4C13.2271 17.316 15.8571 13.4864 19.2324 10.1222V10.1174Z" fill="url(#paint3_linear_3267_6322)"/>
<path d="M9.57786 27.1202L20.9346 15.7848L29.3055 7.42964C22.3145 6.35945 14.9245 8.48543 9.5442 13.8604C0.562647 22.825 0.562647 37.3566 9.53939 46.3164L20.8769 35.0002C16.7852 33.1142 12.9483 30.4891 9.57786 27.1202Z" fill="url(#paint4_linear_3267_6322)"/>
<path d="M16.4578 39.4143C15.3337 38.6414 14.3631 37.8662 13.3637 36.8754C7.92996 31.4885 5.85479 24.0389 6.90164 17.0105L15.2898 25.3987L22.9347 32.9374L16.4578 39.4143Z" fill="url(#paint5_linear_3267_6322)"/>
</g>
<path d="M61.6863 14.166C62.6221 12.9165 63.5053 12.2926 65.0069 11.6815C66.407 11.1338 68.9895 11.1338 70.7613 11.1338V16.248H69.5734C67.5132 16.2661 65.5401 17.0913 64.082 18.5494C62.8252 19.8062 62.0381 21.4456 61.8332 23.1921C61.7734 23.4913 61.7244 23.8105 61.6863 24.1533V37.0802H55.0433V11.1338H61.6863V14.166Z" fill="black"/>
<path d="M96.1595 29.4252C94.7231 30.9976 92.6557 31.9842 90.3579 31.9842C86.9684 31.9842 84.0812 29.8387 82.9786 26.8319H103.314C103.486 25.945 103.573 25.0147 103.573 24.0426C103.573 21.4601 102.98 19.1805 101.794 17.2055C100.639 15.2306 99.0466 13.7108 97.0173 12.6481C94.9879 11.5545 92.7246 11.0068 90.2255 11.0068C87.7264 11.0068 85.4631 11.5545 83.4338 12.6481C81.4044 13.7108 79.7958 15.2306 78.6097 17.2055C77.4545 19.1805 76.876 21.4601 76.876 24.0426C76.876 26.6251 77.4382 28.9048 78.5626 30.8797C79.7178 32.8547 81.2938 34.3889 83.2923 35.4843C85.2908 36.5471 87.5378 37.0802 90.0369 37.0802C92.536 37.0802 94.8446 36.5489 96.8758 35.4843C98.936 34.3907 100.561 32.8565 101.747 30.8797C102.035 30.4118 102.287 29.9276 102.509 29.4252H96.1595ZM90.3579 16.2643C93.7184 16.2643 96.5875 18.3753 97.71 21.3423H83.0058C84.1284 18.3753 86.9974 16.2643 90.3579 16.2643Z" fill="black"/>
<path d="M136.35 0.446289H129.822V12.6007C127.794 11.5108 125.534 10.9649 123.039 10.9649C120.543 10.9649 118.276 11.5126 116.247 12.6061C114.218 13.6689 112.609 15.1886 111.423 17.1636C110.268 19.1385 109.689 21.4182 109.689 24.0007C109.689 26.5832 110.252 28.8628 111.376 30.8378C112.531 32.8127 114.107 34.347 116.106 35.4424C118.104 36.5051 120.351 37.0383 122.85 37.0383C125.349 37.0383 127.658 36.5069 129.689 35.4424C129.733 35.4188 129.776 35.3934 129.822 35.3698V37.08H136.35V0.446289ZM123.173 31.9422C118.833 31.9422 115.313 28.4239 115.313 24.0823C115.313 19.7406 118.831 16.2224 123.173 16.2224C127.513 16.2224 131.033 19.7406 131.033 24.0823C131.033 28.4239 127.515 31.9422 123.173 31.9422Z" fill="black"/>
<path fill-rule="evenodd" clip-rule="evenodd" d="M155.816 11.0068C158.314 11.0068 160.579 11.5545 162.608 12.6481C164.637 13.7108 166.23 15.2306 167.385 17.2056C168.571 19.1805 169.164 21.4601 169.164 24.0426C169.164 26.6251 168.555 28.9048 167.338 30.8797C166.152 32.8547 164.527 34.3889 162.467 35.4843C160.437 36.5471 158.158 37.0802 155.628 37.0802C153.098 37.0802 150.882 36.5489 148.883 35.4843C146.885 34.3907 145.309 32.8547 144.153 30.8797C143.029 28.9048 142.467 26.6251 142.467 24.0426C142.467 21.4601 143.044 19.1805 144.199 17.2056C145.385 15.2306 146.993 13.7108 149.023 12.6481C151.052 11.5545 153.315 11.0068 155.815 11.0068H155.816ZM155.949 16.2661C151.609 16.2661 148.089 19.7844 148.089 24.1261C148.089 28.4659 151.607 31.986 155.949 31.986C160.29 31.986 163.809 28.4677 163.809 24.1261C163.809 19.7844 160.29 16.2661 155.949 16.2661Z" fill="black"/>
<path d="M181.965 16.0978V29.3023C181.965 30.1782 182.17 30.8202 182.582 31.2265C183.024 31.6019 183.751 31.7905 184.763 31.7905H190.998V37.0806H183.673C178.078 37.0806 175.28 34.6396 175.28 29.2569V16.0996H175.304V10.951H175.28V5.64453H181.967V10.951H191V16.0996H181.967L181.965 16.0978Z" fill="black"/>
<defs>
<linearGradient id="paint0_linear_3267_6322" x1="26.2549" y1="17.0039" x2="26.2549" y2="43.4515" gradientUnits="userSpaceOnUse">
<stop stop-color="#3A79EE"/>
<stop offset="1" stop-color="#669CF9"/>
</linearGradient>
<linearGradient id="paint1_linear_3267_6322" x1="26.2548" y1="17.0039" x2="26.2548" y2="43.4515" gradientUnits="userSpaceOnUse">
<stop stop-color="#669CF9"/>
<stop offset="1" stop-color="#3A79EE"/>
</linearGradient>
<linearGradient id="paint2_linear_3267_6322" x1="29.8031" y1="0.446289" x2="29.8031" y2="39.6015" gradientUnits="userSpaceOnUse">
<stop offset="0.384615" stop-color="#3A79EE"/>
<stop offset="1" stop-color="#669CF9"/>
</linearGradient>
<linearGradient id="paint3_linear_3267_6322" x1="19.6146" y1="3.36035" x2="19.6146" y2="29.8079" gradientUnits="userSpaceOnUse">
<stop offset="0.298077" stop-color="#3A79EE"/>
<stop offset="1" stop-color="#669CF9"/>
</linearGradient>
<linearGradient id="paint4_linear_3267_6322" x1="24.5274" y1="3.52621" x2="8.28198" y2="42.0692" gradientUnits="userSpaceOnUse">
<stop stop-color="#669CF9"/>
<stop offset="0.79807" stop-color="#3A79EE"/>
</linearGradient>
<linearGradient id="paint5_linear_3267_6322" x1="14.7447" y1="16.9766" x2="24.7397" y2="44.5109" gradientUnits="userSpaceOnUse">
<stop stop-color="#6298F8"/>
<stop offset="0.605769" stop-color="#4B87F3"/>
</linearGradient>
<clipPath id="clip0_3267_6322">
<rect width="45.8694" height="45.8694" fill="white" transform="translate(0 0.446289)"/>
</clipPath>
</defs>
</svg>
