<svg width="196" height="48" viewBox="0 0 196 48" fill="none" xmlns="http://www.w3.org/2000/svg">
<g clip-path="url(#clip0_3696_10906)">
<path d="M27.8743 37.931L15.99 26.0691L7.23024 17.3258C6.10823 24.6278 8.33716 32.3465 13.9724 37.9661C23.3711 47.3472 38.6013 47.3472 48.0001 37.9661L36.1359 26.1243C34.1585 30.398 31.4063 34.4055 27.8743 37.9259V37.931Z" fill="currentColor"/>
<path d="M27.8743 37.931L15.99 26.0691L7.23024 17.3258C6.10823 24.6278 8.33716 32.3465 13.9724 37.9661C23.3711 47.3472 38.6013 47.3472 48.0001 37.9661L36.1359 26.1243C34.1585 30.398 31.4063 34.4055 27.8743 37.9259V37.931Z" fill="currentColor"/>
<path d="M37.9673 20.0879L26.083 31.9498L17.3232 40.693C24.639 41.8129 32.3723 39.5882 38.0025 33.9636C47.4012 24.5825 47.4012 9.38104 38.0025 0L26.1383 11.8418C30.4201 13.8154 34.4352 16.5625 37.9622 20.0879H37.9673Z" fill="currentColor"/>
<path d="M20.1258 10.1194L32.0101 21.9813L40.7698 30.7245C41.8918 23.4226 39.6629 15.7038 34.0277 10.0842C24.6289 0.703201 9.39874 0.703201 0 10.0842L11.8642 21.9261C13.8415 17.6524 16.5937 13.6448 20.1258 10.1244V10.1194Z" fill="currentColor"/>
<path d="M10.0226 27.9121L21.9069 16.0502L30.6667 7.30698C23.351 6.18708 15.6176 8.41181 9.98743 14.0364C0.588687 23.4175 0.588688 38.624 9.9824 48L21.8465 36.1582C17.5648 34.1846 13.5497 31.4376 10.0226 27.9121Z" fill="currentColor"/>
<path d="M17.2222 40.7778C16.0459 39.969 15.0302 39.1577 13.9844 38.1209C8.2983 32.4838 6.12674 24.6882 7.22221 17.3333L16 26.1111L24 34L17.2222 40.7778Z" fill="currentColor"/>
</g>
<path d="M70.9041 14.0534C71.8766 12.751 72.7945 12.1007 74.3552 11.4637C75.8102 10.8928 78.4942 10.8928 80.3357 10.8928V16.2234H79.1011C76.96 16.2423 74.9093 17.1024 73.3939 18.6222C72.0877 19.9321 71.2697 21.6409 71.0567 23.4613C70.9945 23.7732 70.9436 24.1059 70.9041 24.4631V37.937H64V10.8928H70.9041V14.0534Z" fill="currentColor"/>
<path d="M104.465 29.9982C102.975 31.6292 100.831 32.6525 98.448 32.6525C94.9328 32.6525 91.9386 30.4271 90.7951 27.3081H111.884C112.063 26.3882 112.153 25.4231 112.153 24.4148C112.153 21.736 111.538 19.3713 110.308 17.3227C109.11 15.2741 107.459 13.6977 105.354 12.5953C103.25 11.4609 100.902 10.8928 98.3107 10.8928C95.719 10.8928 93.3718 11.4609 91.2672 12.5953C89.1626 13.6977 87.4944 15.2741 86.2643 17.3227C85.0663 19.3713 84.4663 21.736 84.4663 24.4148C84.4663 27.0936 85.0494 29.4583 86.2154 31.5069C87.4135 33.5555 89.0479 35.147 91.1205 36.2832C93.1931 37.3856 95.5234 37.9387 98.1151 37.9387C100.707 37.9387 103.101 37.3875 105.208 36.2832C107.344 35.1489 109.029 33.5574 110.259 31.5069C110.558 31.0215 110.82 30.5193 111.049 29.9982H104.465ZM98.448 16.3464C101.933 16.3464 104.909 18.5361 106.073 21.6137H90.8233C91.9875 18.5361 94.9629 16.3464 98.448 16.3464Z" fill="currentColor"/>
<path d="M143.848 0H137.077V12.6077C134.975 11.4771 132.631 10.9109 130.043 10.9109C127.455 10.9109 125.104 11.479 123 12.6134C120.895 13.7157 119.227 15.2922 117.997 17.3408C116.799 19.3894 116.199 21.7541 116.199 24.4329C116.199 27.1117 116.782 29.4763 117.948 31.525C119.146 33.5736 120.78 35.1651 122.853 36.3013C124.926 37.4037 127.256 37.9567 129.848 37.9567C132.439 37.9567 134.833 37.4055 136.94 36.3013C136.985 36.2768 137.03 36.2505 137.077 36.226V38H143.848V0ZM130.182 32.6706C125.682 32.6706 122.031 29.0211 122.031 24.5175C122.031 20.014 125.68 16.3645 130.182 16.3645C134.683 16.3645 138.334 20.014 138.334 24.5175C138.334 29.0211 134.685 32.6706 130.182 32.6706Z" fill="currentColor"/>
<path fill-rule="evenodd" clip-rule="evenodd" d="M161.921 10.8928C164.503 10.8928 166.845 11.4609 168.943 12.5952C171.041 13.6975 172.687 15.2738 173.882 17.3223C175.108 19.3708 175.721 21.7353 175.721 24.414C175.721 27.0926 175.091 29.4572 173.833 31.5056C172.607 33.5541 170.927 35.1455 168.797 36.2817C166.699 37.384 164.342 37.937 161.726 37.937C159.111 37.937 156.819 37.3859 154.753 36.2817C152.687 35.1474 151.057 33.5541 149.863 31.5056C148.701 29.4572 148.119 27.0926 148.119 24.414C148.119 21.7353 148.716 19.3708 149.91 17.3223C151.136 15.2738 152.799 13.6975 154.897 12.5952C156.996 11.4609 159.336 10.8928 161.919 10.8928H161.921ZM162.058 16.3479C157.571 16.3479 153.932 19.9972 153.932 24.5005C153.932 29.0019 157.569 32.6531 162.058 32.6531C166.547 32.6531 170.184 29.0038 170.184 24.5005C170.184 19.9972 166.547 16.3479 162.058 16.3479Z" fill="currentColor"/>
<path d="M186.611 16.2503V29.8977C186.611 30.803 186.824 31.4665 187.252 31.8864C187.712 32.2744 188.467 32.4693 189.519 32.4693H195.998V37.9369H188.386C182.572 37.9369 179.664 35.414 179.664 29.8508V16.2521H179.689V10.9307H179.664V5.44629H186.613V10.9307H196V16.2521H186.613L186.611 16.2503Z" fill="currentColor"/>
<defs>
<clipPath id="clip0_3696_10906">
<rect width="48" height="48" fill="white"/>
</clipPath>
</defs>
</svg>
